<svg xmlns="http://www.w3.org/2000/svg" xmlns:xlink="http://www.w3.org/1999/xlink" viewBox="0 0 295.81 154.36"><defs><style>.cls-1{fill:url(#Безымянный_градиент_3);}</style><linearGradient id="Безымянный_градиент_3" x1="147.9" y1="5.62" x2="147.9" y2="149.68" gradientUnits="userSpaceOnUse"><stop offset="0" stop-color="#72c782"/><stop offset="1" stop-color="#4576d0"/></linearGradient></defs><g id="Слой_2" data-name="Слой 2"><g id="DESIGNED_BY_FREEPIK" data-name="DESIGNED BY FREEPIK"><path class="cls-1" d="M251.49,0V57.45h-53V0H154.21V154.36h44.32V95.64h53v58.72h44.32V0ZM290,5l-14,17.33a4.87,4.87,0,0,0-2.27-.57,4.93,4.93,0,0,0-2.53.71L257.27,5ZM256.49,7.23l13.27,16.58a5,5,0,0,0-1,2.92,4.89,4.89,0,0,0,.42,2L256.49,41.19Zm0,36.76,13.9-13.62a5.06,5.06,0,0,0,1.66,1V71.56a6.07,6.07,0,0,0-2.73,1.72L256.49,61Zm15.89,39.23-.15,38.89a4.93,4.93,0,0,0-1.75,1l-14-16.26V92.29l12.67-11A6,6,0,0,0,272.38,83.22ZM255.15,62.45,268.21,75a5.44,5.44,0,0,0-.23.68l-36,1a6,6,0,0,0-2-3.9l11.68-10.34Zm-16.56,0-10.46,9.26a6.18,6.18,0,0,0-2.16-.4,6,6,0,0,0-3,.82l-.22-.45a1,1,0,0,0-.27-.34l-11.07-8.89Zm-30.4,0L221,72.75l.33.71A6,6,0,0,0,219.94,77L182,78.1a7,7,0,0,0,.07-.92,6,6,0,0,0-.64-2.7l13.36-12Zm-28,10.41a5.81,5.81,0,0,0-1.66-1.15L177.1,31.58a5,5,0,0,0,2.93-2l13.5,12.15V60.85Zm13.33-33.78-12.66-11.4a4.85,4.85,0,0,0,.1-.95,5,5,0,0,0-.86-2.79L193.53,6.76ZM192.37,5,178.66,22.55a4.87,4.87,0,0,0-2.67-.79,5.08,5.08,0,0,0-1.79.34L159.93,5ZM159.21,7.26,172.5,23.19A4.93,4.93,0,0,0,171,26.73a5,5,0,0,0,.62,2.37L159.21,40.81Zm0,36.3,13.71-12.93a4.88,4.88,0,0,0,2.18,1l1.42,39.55a4.71,4.71,0,0,0-.53,0,6,6,0,0,0-3.46,1.09L159.21,61.75Zm0,20.73,11.88,9.36a6,6,0,0,0,.09,7.18l-12,13.37Zm0,32.91,13.43-15a6,6,0,0,0,2.35.92v38.81a4.87,4.87,0,0,0-2.43,1.29l-13.35-13.35Zm0,15.51L171.4,124.9a4.89,4.89,0,0,0,.65,4.93l-12.84,17.36Zm.88,36.65,13.47-18.22a4.84,4.84,0,0,0,5.4-.35l13.94,18.57Zm33.44-2.49-13.22-17.62a4.88,4.88,0,0,0,.66-2.43,5,5,0,0,0-.24-1.45l12.8-13.57Zm0-38-13.82,14.66a4.92,4.92,0,0,0-2.72-1.6V83.13A6,6,0,0,0,180.64,81l12.89,11.25Zm1.16-18.24L182.58,80.08,220.17,79a5.22,5.22,0,0,0,.51,1.24L203.93,90.64Zm13,0,14.2-8.8a6,6,0,0,0,7.18.67l8.67,8.13Zm33,0-10.07-9.45a6,6,0,0,0,1.23-2.5l35.89-1a6.34,6.34,0,0,0,.38,1.81l-12.8,11.15Zm15.79,19.28,12.77,14.83a4.77,4.77,0,0,0-.16,3.71l-12.61,18.07Zm.46,39.44,13.29-19a4.92,4.92,0,0,0,5.66,1l14.17,18.05Zm33.86-2.3-13.31-17a4.91,4.91,0,0,0,.36-6.12l12.95-13.85Zm0-39.86L276.4,122.61a4.86,4.86,0,0,0-2.17-.72l.15-38.53a6,6,0,0,0,3.45-1.54l13,14.83Zm0-13.59L279.09,80.23a6,6,0,0,0,.73-2.88,6.06,6.06,0,0,0-.81-3l11.8-13.09Zm0-35.36L277.72,72.78a6,6,0,0,0-3.67-1.46V31.69a4.92,4.92,0,0,0,3.08-1.3l13.68,13.45Zm0-17.21L278.32,28.76a5.06,5.06,0,0,0,.44-2,4.91,4.91,0,0,0-1.16-3.14L290.81,7.2ZM145.54.16,111,0H95.27L44.32,60.49V0H0V154.36H44.32V113.2L59,98.53l39.68,55.83h51.55L90,66ZM84.06,65.3,69.34,68a5.3,5.3,0,0,0-.8-1.08l30.59-39.1a5.54,5.54,0,0,0,2.77.74c.23,0,.45,0,.67,0L105.43,40Zm23-27.22-2.54-10.16a5.58,5.58,0,0,0,3-5,5.74,5.74,0,0,0-.39-2L132.76,7.55ZM133.72,4.8,106,19.22a5.61,5.61,0,0,0-4.14-1.83h-.19L98.23,5ZM96.53,6.34l3.22,11.48a5.63,5.63,0,0,0-3.29,3.91l-13.57.78ZM81.12,24.61l15.26-.87a5.62,5.62,0,0,0,1.22,2.78L66.87,65.8A5,5,0,0,0,65,65.44h-.17l-4.5-16.21ZM58.78,51.09,62.9,65.92A5,5,0,0,0,60,70.42a4.9,4.9,0,0,0,.11,1l-33,18.94L39.32,74.1v.07Zm-32-1.3L39.32,43V67.36L26.74,53.61a5.08,5.08,0,0,0,.4-2A5,5,0,0,0,26.77,49.79Zm-1.1-1.67A4.91,4.91,0,0,0,23.82,47l.09-28.11a4.92,4.92,0,0,0,2-.93L39.32,34.22v6.52Zm-.12,7.16,13.77,15v.44l-15,20a6,6,0,0,0-3.27-1H21l2.4-33.33A4.92,4.92,0,0,0,25.55,55.28ZM39.32,31.07,27.26,16.4a4.86,4.86,0,0,0,0-4.73l12-5.92ZM36.32,5,26,10.09a4.88,4.88,0,0,0-6.23.09L8.34,5ZM5,5.68l13.48,6.11a4.91,4.91,0,0,0,.36,5L5,36.73ZM5,40.23l15.32-22a4.85,4.85,0,0,0,1.59.65L21.82,46.7a4.92,4.92,0,0,0-3,1.29L5,42.06Zm0,4,12.6,5.41a5.11,5.11,0,0,0-.42,2,4.93,4.93,0,0,0,1.18,3.18L5,71.75ZM5,75,19.92,56.07a5,5,0,0,0,1.47.48L19,90.16a6.18,6.18,0,0,0-2.39,1.63L5,83.62ZM5,86.06l10.51,7.41A6,6,0,0,0,15,95.82a6.05,6.05,0,0,0,1.37,3.83L5,115.12Zm0,32.43L17.92,101a6,6,0,0,0,1.86.76l3.26,30a5,5,0,0,0-3.14,1.53l-14.9-4Zm0,12.86,13.83,3.7a5.11,5.11,0,0,0-.29,1.62,4.92,4.92,0,0,0,.34,1.76L5,148.76Zm2.53,18L20,140.12a4.92,4.92,0,0,0,7.49-.42l10.27,9.66Zm31.79-1.22-11-10.33a5.39,5.39,0,0,0,.14-1.14,5,5,0,0,0-1.23-3.25L39.32,117.2Zm0-34.29L25.68,132.2a6.25,6.25,0,0,0-.6-.24L21.8,101.81a6,6,0,0,0,3.92-2.13l13.6,11.65Zm1.3-4L26.74,97.91a6,6,0,0,0,.38-2.09,6.08,6.08,0,0,0-.67-2.76L61,73.28a5,5,0,0,0,1.87,1.59L59,91.42ZM60.83,92.5l3.93-17.13.25,0a4.86,4.86,0,0,0,2.31-.59l34.67,49a7.25,7.25,0,0,0-1.34,1.77l-22-8Zm19.84,27.91,19.3,7a6.9,6.9,0,0,0-.15,1.44,7,7,0,0,0,4.05,6.38l-3.74,12.51Zm27.7-18.63,30.71,45.12L113.4,131.65a7.18,7.18,0,0,0,.55-2.75,7.06,7.06,0,0,0-6-7Zm4,31.58,27,16H101.74l4-13.49a6.72,6.72,0,0,0,1.1.1A7,7,0,0,0,112.36,133.36Zm-5.93-34.44-.47,23a6.82,6.82,0,0,0-2.34.74L68.87,73.52A4.9,4.9,0,0,0,70,70.42a4.2,4.2,0,0,0,0-.51l14.89-2.72Z"/></g></g></svg>